# xmcd CD database file
#
# Track frame offsets:
#	150
#	16722
#	40260
#	62681
#	88382
#	110810
#	113969
#	134222
#	139919
#	156589
#	180675
#
# Disc length: 2827 seconds
#
# Revision: 0
# Processed by: cddbd v1.5.1PL0 Copyright (c) Steve Scherf et al.
# Submitted via: CDex 1.51
#
DISCID=a70b090b
DTITLE=Spon - Homesteal
DYEAR=2003
DGENRE=Rock
TTITLE0=Runnning High
TTITLE1=9 1/2
TTITLE2=Sonomaetosonogo
TTITLE3=Day Dream
TTITLE4=Konsen(Crossed)
TTITLE5=Sample 1
TTITLE6=Standard
TTITLE7=Sample 2
TTITLE8=Loss Of
TTITLE9=Re Start
TTITLE10=Feather
EXTD=YEAR: 2003
EXTT0=
EXTT1=
EXTT2=
EXTT3=
EXTT4=
EXTT5=
EXTT6=
EXTT7=
EXTT8=
EXTT9=
EXTT10=
PLAYORDER=
